<?xml version="1.0" standalone="no"?>
<!DOCTYPE svg PUBLIC "-//W3C//DTD SVG 20010904//EN"
 "http://www.w3.org/TR/2001/REC-SVG-20010904/DTD/svg10.dtd">
<svg version="1.0" xmlns="http://www.w3.org/2000/svg"
 width="140.000000pt" height="140.000000pt" viewBox="0 0 140.000000 140.000000"
 preserveAspectRatio="xMidYMid meet">
<metadata>
Created by potrace 1.14, written by Peter Selinger 2001-2017
</metadata>
<g transform="translate(0.000000,140.000000) scale(0.100000,-0.100000)"
fill="#000000" stroke="none">
<path d="M330 1001 c0 -173 -2 -195 -17 -207 -17 -13 -17 -14 0 -8 16 6 17 -4
17 -118 l0 -125 -73 13 c-160 27 -203 76 -128 142 l26 24 -30 -16 c-67 -35
-103 -83 -85 -115 20 -39 100 -67 215 -77 39 -4 72 -8 73 -10 2 -1 6 -24 9
-51 11 -113 77 -174 226 -213 73 -19 233 -17 292 5 63 22 97 41 125 68 58 57
70 96 70 237 l0 76 51 19 c27 11 45 21 40 23 -5 2 -24 -4 -41 -13 -42 -22 -53
-10 -49 49 3 25 1 46 -2 46 -4 0 -3 18 1 40 4 22 4 40 0 40 -5 0 -6 9 -3 20 6
24 15 24 103 4 75 -17 120 -45 120 -74 0 -10 -12 -33 -27 -51 l-28 -34 35 25
c49 34 80 68 80 89 0 48 -129 98 -256 101 -12 0 -25 7 -28 16 -3 8 -2 12 4 9
6 -3 10 -1 10 4 0 6 -5 11 -11 11 -5 0 -7 5 -3 12 10 15 9 216 0 226 -12 11
-306 9 -307 -3 -1 -5 -3 -68 -4 -140 -1 -71 -3 -135 -4 -141 0 -7 -19 -14 -41
-16 -31 -3 -40 0 -41 12 -1 8 -2 78 -3 155 l-1 140 -157 0 -158 1 0 -195z
m405 -284 l0 -152 -40 -6 c-22 -4 -42 -5 -44 -3 -3 3 -5 71 -5 152 -1 161 -4
154 63 159 l27 2 -1 -152z m1 -233 c0 -58 -12 -91 -37 -97 -32 -9 -49 15 -52
70 -4 63 -1 70 38 76 47 6 50 3 51 -49z"/>
<path d="M1333 888 c-13 -21 -12 -35 3 -35 8 0 14 7 14 14 0 9 5 11 13 7 8 -5
8 -2 -2 9 -16 20 -18 21 -28 5z"/>
</g>
</svg>
